<?xml version="1.0" standalone="no"?>
<!DOCTYPE svg PUBLIC "-//W3C//DTD SVG 20010904//EN"
 "http://www.w3.org/TR/2001/REC-SVG-20010904/DTD/svg10.dtd">
<svg version="1.0" xmlns="http://www.w3.org/2000/svg"
 width="959.000000pt" height="959.000000pt" viewBox="0 0 959.000000 959.000000"
 preserveAspectRatio="xMidYMid meet">
<metadata>
Created by potrace 1.11, written by Peter Selinger 2001-2013
</metadata>
<g transform="translate(0.000000,959.000000) scale(0.100000,-0.100000)"
fill="#000000" stroke="none">
<path d="M4805 9550 c-110 -3 -344 -7 -520 -8 -176 -1 -349 -7 -385 -12 -36
-5 -137 -10 -226 -10 -88 0 -163 -2 -166 -5 -3 -3 -70 -7 -149 -9 -122 -3
-347 -21 -529 -41 -25 -2 -108 -12 -185 -20 -142 -16 -381 -47 -490 -65 -355
-57 -523 -90 -755 -147 -346 -85 -649 -197 -809 -298 -119 -76 -190 -147 -227
-230 -24 -51 -28 -72 -27 -151 0 -83 3 -96 32 -151 53 -99 142 -172 315 -259
l91 -45 85 -130 c47 -71 90 -137 95 -146 6 -9 28 -44 51 -77 22 -34 116 -178
209 -321 92 -143 211 -325 263 -405 258 -393 410 -627 580 -890 97 -150 263
-403 312 -475 26 -38 58 -90 72 -115 14 -25 117 -196 228 -380 216 -356 391
-645 420 -695 9 -16 80 -133 156 -260 105 -173 150 -259 182 -345 24 -63 64
-169 89 -235 24 -66 48 -129 53 -140 5 -11 29 -76 55 -145 26 -69 67 -179 92
-245 25 -66 49 -129 53 -140 65 -157 110 -314 251 -875 l159 -634 0 -642 0
-641 26 -26 c54 -54 269 -98 554 -112 235 -12 495 28 608 92 l42 24 0 637 0
638 35 144 c34 140 47 191 65 255 4 17 24 98 44 180 20 83 40 164 45 180 5 17
37 142 71 279 53 213 90 336 130 431 5 11 29 76 55 145 26 69 50 134 55 145 5
11 25 65 45 120 35 94 42 113 64 168 5 12 26 67 46 122 40 109 47 127 63 165
6 14 28 73 50 131 22 59 63 144 91 189 28 45 51 83 51 86 0 2 20 34 43 71 24
38 46 73 48 78 3 8 57 97 99 165 13 20 257 425 284 471 12 19 57 94 101 167
44 73 85 140 90 150 68 117 222 367 270 438 34 50 64 95 66 100 2 5 43 68 90
139 47 72 110 168 141 215 113 175 194 299 286 440 52 80 128 195 167 255 40
61 131 200 202 310 71 110 169 261 218 335 49 74 139 212 200 305 61 94 131
201 155 239 42 64 50 71 130 111 158 77 263 161 316 251 24 41 29 61 32 141
11 234 -108 357 -518 536 -51 23 -320 111 -425 140 -172 48 -427 105 -610 137
-27 5 -88 16 -135 24 -77 13 -124 20 -305 46 -294 42 -488 63 -915 99 -328 29
-1069 43 -1545 31z m-345 -108 c19 -6 33 -11 30 -11 -12 -4 -291 -22 -465 -31
-104 -5 -228 -12 -275 -15 -47 -3 -200 -12 -340 -20 -140 -8 -304 -20 -365
-25 -140 -13 -344 -29 -415 -32 -101 -5 -62 17 77 44 210 40 459 70 818 97
143 11 889 5 935 -7z m236 -8130 c14 -9 1 -139 -19 -184 -8 -18 -17 -41 -21
-50 -3 -10 -10 -18 -15 -18 -12 0 -21 50 -24 140 -1 41 -6 81 -10 88 -5 6 -5
17 -2 22 7 12 75 13 91 2z"/>
</g>
</svg>
